<svg xmlns="http://www.w3.org/2000/svg" width="13" height="17" viewBox="0 0 13 17">
    <g fill="#ADADAD" fill-rule="evenodd">
        <path d="M9.904 15.194h-7.62L1.808 4.32h8.572l-.476 10.873zM1.094 2.69h10v.57h-10v-.57zm3.544-1.06H7.55v-.57H4.638v.57zm7.003 0H8.644V.53A.539.539 0 0 0 8.097 0H4.091a.539.539 0 0 0-.547.53v1.1H.547A.539.539 0 0 0 0 2.16v1.63c0 .294.245.53.547.53h.166l.5 11.426a.54.54 0 0 0 .547.508h8.668a.54.54 0 0 0 .547-.508l.5-11.425h.166a.539.539 0 0 0 .547-.53V2.16a.539.539 0 0 0-.547-.53z"/>
        <path d="M3.926 13.545a.529.529 0 0 1-.54-.518V6.613c0-.286.242-.518.54-.518.297 0 .539.232.539.518v6.414a.529.529 0 0 1-.54.518zm2.17 0a.529.529 0 0 1-.54-.518V6.613c0-.286.241-.518.54-.518.297 0 .539.232.539.518v6.414a.529.529 0 0 1-.54.518zm2.169 0a.529.529 0 0 1-.54-.518V6.613c0-.286.242-.518.54-.518.298 0 .54.232.54.518v6.414a.529.529 0 0 1-.54.518z"/>
    </g>
</svg>
