<svg xmlns="http://www.w3.org/2000/svg" width="137" height="27" viewBox="0 0 137 27">
    <g fill="#FFF" fill-rule="nonzero">
        <path d="M47.765 12.783a4.552 4.552 0 0 1-1.372 3.535 5.494 5.494 0 0 1-3.852 1.26h-2.593v3.73H37V8.25h5.54a5.709 5.709 0 0 1 3.863 1.184 4.207 4.207 0 0 1 1.362 3.349zm-3.461 1.763a2.09 2.09 0 0 0 .662-1.67 2.006 2.006 0 0 0-.662-1.632 2.957 2.957 0 0 0-1.866-.55h-2.49v4.421h2.444a2.854 2.854 0 0 0 1.912-.569zm6.744-6.296h9.907v2.443h-6.997v2.799h6.288v2.444h-6.25v2.892h7.201v2.444H51.048V8.25zm21.884 13.059l-2.071-3.731h-3.004v3.73H64.91V8.25h5.671c1.418-.091 2.82.33 3.955 1.184a4.151 4.151 0 0 1 1.4 3.349 5.121 5.121 0 0 1-.626 2.584 4.03 4.03 0 0 1-1.865 1.632l2.798 4.31h-3.311zm-5.075-6.194h2.724c.67.04 1.332-.162 1.866-.569a2.09 2.09 0 0 0 .662-1.67 2.006 2.006 0 0 0-.662-1.632 2.92 2.92 0 0 0-1.866-.55h-2.724v4.421zM79.816 8.25h2.948v13.059h-2.948V8.249zm13.255 2.369a3.918 3.918 0 0 0-3.451 2.015 4.384 4.384 0 0 0 0 4.15 3.918 3.918 0 0 0 3.451 2.044 4.244 4.244 0 0 0 1.782-.42c.6-.28 1.146-.661 1.614-1.129l1.735 1.866a7.966 7.966 0 0 1-2.454 1.716 6.903 6.903 0 0 1-2.798.634 6.977 6.977 0 0 1-3.489-.886A6.427 6.427 0 0 1 87 18.175a6.772 6.772 0 0 1-.933-3.452 6.455 6.455 0 0 1 .933-3.414 6.53 6.53 0 0 1 2.509-2.407 7.332 7.332 0 0 1 8.759 1.297l-1.717 2.108a5.112 5.112 0 0 0-1.613-1.231 3.983 3.983 0 0 0-1.866-.457zm8.33-2.37h2.948v10.485h5.597v2.575H101.4V8.249zm11.698 0h9.943v2.444h-6.996v2.799h6.287v2.444h-6.287v2.892h7.201v2.444H113.1V8.25zm20.325 2.659a6.53 6.53 0 0 0-1.93-.364 2.267 2.267 0 0 0-1.213.28.933.933 0 0 0-.448.82c-.007.447.244.857.644 1.055.633.322 1.3.576 1.987.756.754.21 1.492.472 2.21.783a3.918 3.918 0 0 1 1.484 1.175c.434.6.652 1.331.615 2.071a3.582 3.582 0 0 1-.662 2.155 4.104 4.104 0 0 1-1.82 1.371 7.07 7.07 0 0 1-2.63.467 8.964 8.964 0 0 1-3.115-.56 8.395 8.395 0 0 1-2.65-1.53l1.176-2.406a7.929 7.929 0 0 0 2.276 1.436c.74.336 1.539.52 2.35.541.499.027.994-.09 1.428-.336a1.175 1.175 0 0 0 .168-1.8 2.798 2.798 0 0 0-.877-.532c-.354-.14-.849-.289-1.465-.466a16.361 16.361 0 0 1-2.192-.746 3.834 3.834 0 0 1-1.464-1.148 3.144 3.144 0 0 1-.616-2.033 3.405 3.405 0 0 1 .635-2.062 3.992 3.992 0 0 1 1.735-1.352 6.819 6.819 0 0 1 2.649-.476c.897 0 1.79.133 2.649.392a8.908 8.908 0 0 1 2.313 1.045l-1.082 2.443c-.677-.41-1.4-.738-2.155-.979z"/>
        <path stroke="#FFF" stroke-width=".5" d="M14.75 5.895c1.11.063 2.203.297 3.24.694l.76.315L21 2.95l-.926-.417a16.565 16.565 0 0 0-6.796-1.509C6.176 1.024 1 6.09 1 13.061v13.676h4.546V13.72h1.658v6.944h12.592v-2.685h-.926c-6.037 0-6.037-3.269-6.037-4.333 0-1.065.445-1.454 1.5-1.454.343-.046.687.074.926.324.323.472.47 1.042.417 1.611v1.01h3.704v-3.084c0-2.24-1.852-4.046-4.547-4.454l-.083-1.703zM1.926 25.82V13.061c0-6.805 5.065-11.11 11.352-11.11a15.74 15.74 0 0 1 6.389 1.425l-1.324 2.333a11.954 11.954 0 0 0-4.213-.787c-5.223.01-9.528 3.584-9.528 8.14v12.796l-2.676-.038zm11.88-19.898v1.584c-3.667 0-6.325 2.268-6.556 5.296H5.63c0-4.028 4.11-6.88 8.176-6.88zm4.564 6.13v2.167H16.52s.277-2.945-2.223-2.945a2.167 2.167 0 0 0-2.426 2.38c0 3.704 2.723 5.26 6.963 5.26v.832H8.12v-5.398a5.556 5.556 0 0 1 5.37-5.824c3.029 0 4.88 1.584 4.88 3.528z"/>
    </g>
</svg>
